<svg width="32" height="32" viewBox="0 0 32 32" fill="none" xmlns="http://www.w3.org/2000/svg">
<g clip-path="url(#clip0_105_320)">
<path fill-rule="evenodd" clip-rule="evenodd" d="M16 0C19.1645 0 22.2579 0.938384 24.8891 2.69649C27.5203 4.45459 29.5711 6.95345 30.7821 9.87706C31.9931 12.8007 32.3099 16.0177 31.6926 19.1214C31.0752 22.2251 29.5513 25.0761 27.3137 27.3137C25.0761 29.5513 22.2251 31.0752 19.1214 31.6926C16.0177 32.3099 12.8007 31.9931 9.87706 30.7821C6.95345 29.5711 4.45459 27.5203 2.69649 24.8891C0.938384 22.2579 0 19.1645 0 16C0 11.7565 1.68571 7.68687 4.68629 4.68629C7.68687 1.68571 11.7565 0 16 0ZM8.0026 9.89583L16.1458 16.5286L23.9349 9.89583H8.0026ZM7.48177 21.0651L13.2812 15.2474L7.47656 10.5182V21.0599L7.48177 21.0651ZM13.9141 15.7682L7.9375 21.7578H24.013L18.2995 15.7682L16.4062 17.3724C16.333 17.4329 16.2409 17.4661 16.1458 17.4661C16.0508 17.4661 15.9587 17.4329 15.8854 17.3724L13.9089 15.7604L13.9141 15.7682ZM18.9245 15.2474L24.5234 21.1172V10.4661L18.9245 15.237V15.2474Z" fill="#1C9DB6"/>
</g>
<defs>
<clipPath id="clip0_105_320">
<rect width="32" height="32" fill="white"/>
</clipPath>
</defs>
</svg>
