<svg width="32" height="32" viewBox="0 0 32 32" fill="none" xmlns="http://www.w3.org/2000/svg">
<g clip-path="url(#clip0_105_318)">
<path fill-rule="evenodd" clip-rule="evenodd" d="M15.9994 0.39865C7.16465 0.39865 0 7.5621 0 16.398C0 23.4676 4.5839 29.4629 10.9413 31.5795C11.7415 31.7277 12.0356 31.2317 12.0356 30.8088C12.0356 30.4273 12.0197 29.1671 12.0132 27.8312C7.56155 28.7992 6.62315 25.9426 6.62315 25.9426C5.89555 24.0929 4.8467 23.6011 4.8467 23.6011C3.3951 22.6071 4.95715 22.629 4.95715 22.629C6.56345 22.7412 7.40915 24.2766 7.40915 24.2766C8.83715 26.7227 11.1533 26.0146 12.0657 25.6065C12.2098 24.5725 12.6232 23.8662 13.0815 23.4664C9.52745 23.0631 5.7916 21.6906 5.7916 15.5594C5.7916 13.8131 6.4176 12.3851 7.43985 11.2654C7.27335 10.8615 6.7253 9.2351 7.594 7.0317C7.594 7.0317 8.9375 6.6012 11.9955 8.6717C13.271 8.31795 14.6394 8.1396 15.9983 8.1337C17.3583 8.1396 18.729 8.31735 20.0064 8.6717C23.0602 6.6024 24.4025 7.0317 24.4025 7.0317C25.2724 9.2357 24.7267 10.8632 24.5602 11.2654C25.586 12.3851 26.2067 13.8131 26.2067 15.5594C26.2067 21.7047 22.4625 23.0559 18.9008 23.4522C19.4748 23.9483 19.9874 24.9221 19.9874 26.4138C19.9874 28.5534 19.9692 30.2779 19.9692 30.8041C19.9692 31.2299 20.2574 31.7277 21.0688 31.5718C27.4226 29.4541 32.0006 23.4581 32.0006 16.3927C32.0006 7.5579 24.8372 0.39325 16.0006 0.39325L15.9995 0.3986L15.9994 0.39865Z" fill="#1C9DB6"/>
</g>
<defs>
<clipPath id="clip0_105_318">
<rect width="32" height="32" fill="white"/>
</clipPath>
</defs>
</svg>
